{"asset":{"version":"2.0","generator":"VECTARY"},"nodes":[{"translation":[0,-0.084,-1.4210854715202004e-17],"scale":[0.001,0.001,0.001],"rotation":[-0.7071067811865475,0,0,0.7071067811865476],"name":"Cone","mesh":0},{"translation":[0,0.005,8.881784197001253e-19],"scale":[0.00108,0.00108,0.00102],"rotation":[-0.7071067811865475,0,0,0.7071067811865476],"name":"Sphere 1","mesh":1},{"translation":[0,0.018000000000000002,3.552713678800501e-18],"scale":[0.002,0.002,0.0005300000000000001],"rotation":[-0.7071067811865475,0,0,0.7071067811865476],"name":"Sphere","mesh":2}],"materials":[{"pbrMetallicRoughness":{"baseColorFactor":[1,0.8122414898984895,0.14799802298268516,1],"metallicFactor":0,"roughnessFactor":0.2},"name":"Arabella","emissiveFactor":[0,0,0],"extensions":{},"alphaMode":"OPAQUE","doubleSided":false},{"pbrMetallicRoughness":{"baseColorFactor":[0.5174013674966733,1,0.744530171266715,1],"metallicFactor":0,"roughnessFactor":0.2},"name":"Lifeline","emissiveFactor":[0,0,0],"extensions":{},"alphaMode":"OPAQUE","doubleSided":false},{"pbrMetallicRoughness":{"baseColorFactor":[0.4761772653974402,0.4761772653974402,0.48776520187781053,1],"metallicFactor":0,"roughnessFactor":0.2},"name":"Paris","emissiveFactor":[0,0,0],"extensions":{},"alphaMode":"OPAQUE","doubleSided":false}],"meshes":[{"primitives":[{"mode":4,"attributes":{"POSITION":1,"NORMAL":2,"TEXCOORD_0":3},"material":0,"indices":0}]},{"primitives":[{"mode":4,"attributes":{"POSITION":5,"NORMAL":6,"TEXCOORD_0":7},"material":1,"indices":4}]},{"primitives":[{"mode":4,"attributes":{"POSITION":9,"NORMAL":10,"TEXCOORD_0":11},"material":2,"indices":8}]}],"accessors":[{"bufferView":0,"byteOffset":0,"componentType":5125,"count":4992,"type":"SCALAR"},{"bufferView":1,"byteOffset":0,"componentType":5126,"count":897,"max":[47.52382278442383,47.52382278442383,95.05572509765625],"min":[-47.52382278442383,-47.52382278442383,0],"type":"VEC3"},{"bufferView":2,"byteOffset":0,"componentType":5126,"count":897,"type":"VEC3"},{"bufferView":3,"byteOffset":0,"componentType":5126,"count":897,"type":"VEC2"},{"bufferView":4,"byteOffset":0,"componentType":5125,"count":11904,"type":"SCALAR"},{"bufferView":5,"byteOffset":0,"componentType":5126,"count":2143,"max":[50,50,100],"min":[-50,-50,0],"type":"VEC3"},{"bufferView":6,"byteOffset":0,"componentType":5126,"count":2143,"type":"VEC3"},{"bufferView":7,"byteOffset":0,"componentType":5126,"count":2143,"type":"VEC2"},{"bufferView":8,"byteOffset":0,"componentType":5125,"count":11904,"type":"SCALAR"},{"bufferView":9,"byteOffset":0,"componentType":5126,"count":2143,"max":[50,50,100],"min":[-50,-50,0],"type":"VEC3"},{"bufferView":10,"byteOffset":0,"componentType":5126,"count":2143,"type":"VEC3"},{"bufferView":11,"byteOffset":0,"componentType":5126,"count":2143,"type":"VEC2"}],"bufferViews":[{"buffer":0,"byteOffset":0,"byteLength":19968,"target":34963},{"buffer":0,"byteOffset":19968,"byteLength":10764,"target":34962},{"buffer":0,"byteOffset":30732,"byteLength":10764,"target":34962},{"buffer":0,"byteOffset":41496,"byteLength":7176,"target":34962},{"buffer":0,"byteOffset":48672,"byteLength":47616,"target":34963},{"buffer":0,"byteOffset":96288,"byteLength":25716,"target":34962},{"buffer":0,"byteOffset":122004,"byteLength":25716,"target":34962},{"buffer":0,"byteOffset":147720,"byteLength":17144,"target":34962},{"buffer":0,"byteOffset":164864,"byteLength":47616,"target":34963},{"buffer":0,"byteOffset":212480,"byteLength":25716,"target":34962},{"buffer":0,"byteOffset":238196,"byteLength":25716,"target":34962},{"buffer":0,"byteOffset":263912,"byteLength":17144,"target":34962}],"scene":0,"scenes":[{"nodes":[0,1,2],"name":"Demo - Arm chair"}],"extensionsUsed":["KHR_texture_transform"],"buffers":[{"byteLength":281056,"uri":"Demo- Arm chair.bin"}]}