{"asset":{"version":"2.0","generator":"VECTARY"},"nodes":[{"translation":[0.011532149028165453,0.0009999996326268037,-0.004950216732082481],"scale":[0.0010917941690180104,0.0010917941690180104,0.0010699582856376502],"rotation":[-0.7071067811865475,0,0,0.7071067811865476],"name":"Sphere","mesh":0}],"materials":[{"pbrMetallicRoughness":{"baseColorFactor":[0.8670237934377415,0.8670237934377415,0.8670237934377415,1],"metallicFactor":0,"roughnessFactor":0.2},"name":"Tuscany","emissiveFactor":[0,0,0],"extensions":{},"alphaMode":"OPAQUE","doubleSided":false}],"meshes":[{"primitives":[{"mode":4,"attributes":{"POSITION":1,"NORMAL":2,"TEXCOORD_0":3},"material":0,"indices":0}]}],"accessors":[{"bufferView":0,"byteOffset":0,"componentType":5125,"count":11904,"type":"SCALAR"},{"bufferView":1,"byteOffset":0,"componentType":5126,"count":2288,"max":[60.60405349731445,70.7540512084961,130.27101135253906],"min":[-83.36973571777344,-69.09375,-5.322314739227295],"type":"VEC3"},{"bufferView":2,"byteOffset":0,"componentType":5126,"count":2288,"type":"VEC3"},{"bufferView":3,"byteOffset":0,"componentType":5126,"count":2288,"type":"VEC2"}],"bufferViews":[{"buffer":0,"byteOffset":0,"byteLength":47616,"target":34963},{"buffer":0,"byteOffset":47616,"byteLength":27456,"target":34962},{"buffer":0,"byteOffset":75072,"byteLength":27456,"target":34962},{"buffer":0,"byteOffset":102528,"byteLength":18304,"target":34962}],"scene":0,"scenes":[{"nodes":[0],"name":"Demo - Arm chair"}],"extensionsUsed":["KHR_texture_transform"],"buffers":[{"byteLength":120832,"uri":"Demo- Arm chair.bin"}]}