{"asset":{"version":"2.0","generator":"VECTARY"},"nodes":[{"translation":[0.011047247635454322,0.09943899469972095,0.04882828766102195],"scale":[0.0010816112312321178,0.0010816112312321178,0.001081611231232118],"rotation":[-0.569407842651926,0.31195870924890107,0.7162469036539815,0.25582581077038163],"name":"3D Text - Z","mesh":0},{"translation":[0.004916923136916752,0.0997503070419077,0.021732556855699747],"scale":[0.0010816112312321178,0.0010816112312321178,0.001081611231232118],"rotation":[-0.569407842651926,0.31195870924890107,0.7162469036539815,0.25582581077038163],"name":"3D Text - e","mesh":1},{"translation":[-0.0011085198475312098,0.10005629325334699,-0.004899602849445849],"scale":[0.0010816112312321178,0.0010816112312321178,0.001081611231232118],"rotation":[-0.569407842651926,0.31195870924890107,0.7162469036539815,0.25582581077038163],"name":"3D Text - t","mesh":2},{"translation":[-0.004899986581870528,0.10024883287986623,-0.021657698120829884],"scale":[0.0010816112312321178,0.0010816112312321178,0.001081611231232118],"rotation":[-0.569407842651926,0.31195870924890107,0.7162469036539815,0.25582581077038163],"name":"3D Text - a","mesh":3},{"translation":[0.14,0,0],"scale":[0.0006666392521761666,0.0006666392521761666,0.0006666392521761666],"rotation":[-0.7071067811865474,0,0,0.7071067811865475],"name":"Polyhedron","mesh":4},{"translation":[0.14100000000000001,0.05,1.0658141036401503e-17],"scale":[0.001,0.001,0.001],"rotation":[-0.6665481905790778,-0.23603709377078272,0.2360370937707827,0.6665481905790779],"name":"Box 1","mesh":5},{"translation":[-0.008,0.044,7.105427357601002e-18],"scale":[0.001,0.00122,0.0015400000000000001],"rotation":[-0.5,0.5,-0.4999999999999999,0.5000000000000001],"name":"Cylinder","mesh":6},{"translation":[0,-2.1316282072803006e-17,0.11199999999999999],"scale":[0.00127,0.001,0.001],"rotation":[-4.329780281177466e-17,0.7071067811865475,0.7071067811865476,4.329780281177467e-17],"name":"Group 1","children":[8,9]},{"translation":[0,39.23845059950186,16],"scale":[0.9999999999999999,0.9999999999999999,0.46],"rotation":[0.258730354279914,-0.006775092764741776,0.025284990424008603,0.9655948276329349],"name":"Box","mesh":7},{"translation":[0,-24.76154940049814,0],"scale":[1,1,0.44],"rotation":[0,0,0,1],"name":"Box 2","mesh":8},{"translation":[0,2.1316282072803006e-17,-0.11276154940049814],"scale":[0.00127,0.001,0.001],"rotation":[-0.7071067811865475,0,0,0.7071067811865476],"name":"Group","children":[11,12]},{"translation":[0,39.23845059950186,16],"scale":[0.9999999999999999,0.9999999999999999,0.46],"rotation":[0.258730354279914,-0.006775092764741776,0.025284990424008603,0.9655948276329349],"name":"Box","mesh":9},{"translation":[0,-24.76154940049814,0],"scale":[1,1,0.44],"rotation":[0,0,0,1],"name":"Box 2","mesh":10},{"translation":[0,0.05,1.0658141036401503e-17],"scale":[0.000691034300092703,0.0011588752041672185,0.0023947368421052633],"rotation":[-0.5,-0.5,0.4999999999999999,0.5000000000000001],"name":"Cone","mesh":11}],"materials":[{"pbrMetallicRoughness":{"baseColorFactor":[1,0,0,1],"metallicFactor":0,"roughnessFactor":0.2},"name":"Caribbean Beauty","emissiveFactor":[0,0,0],"extensions":{},"alphaMode":"OPAQUE","doubleSided":false},{"pbrMetallicRoughness":{"baseColorFactor":[1,0,0,1],"metallicFactor":0,"roughnessFactor":0.2},"name":"Caribbean Beauty","emissiveFactor":[0,0,0],"extensions":{},"alphaMode":"OPAQUE","doubleSided":false},{"pbrMetallicRoughness":{"baseColorFactor":[1,0,0,1],"metallicFactor":0,"roughnessFactor":0.2},"name":"Caribbean Beauty","emissiveFactor":[0,0,0],"extensions":{},"alphaMode":"OPAQUE","doubleSided":false},{"pbrMetallicRoughness":{"baseColorFactor":[1,0,0,1],"metallicFactor":0,"roughnessFactor":0.2},"name":"Caribbean Beauty","emissiveFactor":[0,0,0],"extensions":{},"alphaMode":"OPAQUE","doubleSided":false},{"pbrMetallicRoughness":{"baseColorFactor":[0.8512516451845149,0.5295232224172772,0.03994717100152559,1],"metallicFactor":0.39,"roughnessFactor":0.22},"name":"City Terrace","emissiveFactor":[0.53,0.53,0.53],"extensions":{},"alphaMode":"OPAQUE","doubleSided":false},{"pbrMetallicRoughness":{"baseColorFactor":[0.2888159727972186,0.2888159727972186,0.2888159727972186,1],"metallicFactor":0,"roughnessFactor":0.2},"name":"Free Spirit","emissiveFactor":[0,0,0],"extensions":{},"alphaMode":"OPAQUE","doubleSided":false},{"pbrMetallicRoughness":{"baseColorFactor":[0.2888159727972186,0.2888159727972186,0.2888159727972186,1],"metallicFactor":0,"roughnessFactor":0.2},"name":"Nobel","emissiveFactor":[0,0,0],"extensions":{},"alphaMode":"OPAQUE","doubleSided":false},{"pbrMetallicRoughness":{"baseColorFactor":[0.2888159727972186,0.2888159727972186,0.2888159727972186,1],"metallicFactor":0,"roughnessFactor":0.2},"name":"Solitaire 1","emissiveFactor":[0,0,0],"extensions":{},"alphaMode":"OPAQUE","doubleSided":false},{"pbrMetallicRoughness":{"baseColorFactor":[0.2888159727972186,0.2888159727972186,0.2888159727972186,1],"metallicFactor":0,"roughnessFactor":0.2},"name":"Solid 2","emissiveFactor":[0,0,0],"extensions":{},"alphaMode":"OPAQUE","doubleSided":false},{"pbrMetallicRoughness":{"baseColorFactor":[0.2888159727972186,0.2888159727972186,0.2888159727972186,1],"metallicFactor":0,"roughnessFactor":0.2},"name":"Solitaire","emissiveFactor":[0,0,0],"extensions":{},"alphaMode":"OPAQUE","doubleSided":false},{"pbrMetallicRoughness":{"baseColorFactor":[0.2888159727972186,0.2888159727972186,0.2888159727972186,1],"metallicFactor":0,"roughnessFactor":0.2},"name":"Solid 1","emissiveFactor":[0,0,0],"extensions":{},"alphaMode":"OPAQUE","doubleSided":false},{"pbrMetallicRoughness":{"baseColorFactor":[0.2888159727972186,0.2888159727972186,0.2888159727972186,1],"metallicRoughnessTexture":{"index":0,"extensions":{"KHR_texture_transform":{"offset":[0,0],"scale":[1,1],"rotation":0}},"texCoord":0},"metallicFactor":0,"roughnessFactor":0.2},"name":"Butterfly","emissiveFactor":[0,0,0],"extensions":{},"alphaMode":"OPAQUE","doubleSided":false}],"meshes":[{"primitives":[{"mode":4,"attributes":{"POSITION":1,"NORMAL":2,"TEXCOORD_0":3},"material":0,"indices":0}]},{"primitives":[{"mode":4,"attributes":{"POSITION":5,"NORMAL":6,"TEXCOORD_0":7},"material":1,"indices":4}]},{"primitives":[{"mode":4,"attributes":{"POSITION":9,"NORMAL":10,"TEXCOORD_0":11},"material":2,"indices":8}]},{"primitives":[{"mode":4,"attributes":{"POSITION":13,"NORMAL":14,"TEXCOORD_0":15},"material":3,"indices":12}]},{"primitives":[{"mode":4,"attributes":{"POSITION":17,"NORMAL":18,"TEXCOORD_0":19},"material":4,"indices":16}]},{"primitives":[{"mode":4,"attributes":{"POSITION":21,"NORMAL":22,"TEXCOORD_0":23},"material":5,"indices":20}]},{"primitives":[{"mode":4,"attributes":{"POSITION":25,"NORMAL":26,"TEXCOORD_0":27},"material":6,"indices":24}]},{"primitives":[{"mode":4,"attributes":{"POSITION":29,"NORMAL":30,"TEXCOORD_0":31},"material":7,"indices":28}]},{"primitives":[{"mode":4,"attributes":{"POSITION":33,"NORMAL":34,"TEXCOORD_0":35},"material":8,"indices":32}]},{"primitives":[{"mode":4,"attributes":{"POSITION":37,"NORMAL":38,"TEXCOORD_0":39},"material":9,"indices":36}]},{"primitives":[{"mode":4,"attributes":{"POSITION":41,"NORMAL":42,"TEXCOORD_0":43},"material":10,"indices":40}]},{"primitives":[{"mode":4,"attributes":{"POSITION":45,"NORMAL":46,"TEXCOORD_0":47},"material":11,"indices":44}]}],"accessors":[{"bufferView":0,"byteOffset":0,"componentType":5125,"count":108,"type":"SCALAR"},{"bufferView":1,"byteOffset":0,"componentType":5126,"count":70,"max":[26.538000106811523,2.1855658677570914e-15,35.69300079345703],"min":[2.002000093460083,-15,0],"type":"VEC3"},{"bufferView":2,"byteOffset":0,"componentType":5126,"count":70,"type":"VEC3"},{"bufferView":3,"byteOffset":0,"componentType":5126,"count":70,"type":"VEC2"},{"bufferView":4,"byteOffset":0,"componentType":5125,"count":948,"type":"SCALAR"},{"bufferView":5,"byteOffset":0,"componentType":5126,"count":630,"max":[25.43899917602539,1.6683363158236856e-15,27.246000289916992],"min":[2.808000087738037,-15,-0.4880000054836273],"type":"VEC3"},{"bufferView":6,"byteOffset":0,"componentType":5126,"count":630,"type":"VEC3"},{"bufferView":7,"byteOffset":0,"componentType":5126,"count":630,"type":"VEC2"},{"bufferView":8,"byteOffset":0,"componentType":5125,"count":552,"type":"SCALAR"},{"bufferView":9,"byteOffset":0,"componentType":5126,"count":366,"max":[16.601999282836914,2.018156581995857e-15,32.95899963378906],"min":[0.7570000290870667,-15,-0.4880000054836273],"type":"VEC3"},{"bufferView":10,"byteOffset":0,"componentType":5126,"count":366,"type":"VEC3"},{"bufferView":11,"byteOffset":0,"componentType":5126,"count":366,"type":"VEC2"},{"bufferView":12,"byteOffset":0,"componentType":5125,"count":1188,"type":"SCALAR"},{"bufferView":13,"byteOffset":0,"componentType":5126,"count":794,"max":[23.7549991607666,1.6653360192453925e-15,27.19700050354004],"min":[2.2950000762939453,-15,-0.4880000054836273],"type":"VEC3"},{"bufferView":14,"byteOffset":0,"componentType":5126,"count":794,"type":"VEC3"},{"bufferView":15,"byteOffset":0,"componentType":5126,"count":794,"type":"VEC2"},{"bufferView":16,"byteOffset":0,"componentType":5125,"count":240,"type":"SCALAR"},{"bufferView":17,"byteOffset":0,"componentType":5126,"count":57,"max":[50,50,100],"min":[-50,-50,0],"type":"VEC3"},{"bufferView":18,"byteOffset":0,"componentType":5126,"count":57,"type":"VEC3"},{"bufferView":19,"byteOffset":0,"componentType":5126,"count":57,"type":"VEC2"},{"bufferView":20,"byteOffset":0,"componentType":5125,"count":2916,"type":"SCALAR"},{"bufferView":21,"byteOffset":0,"componentType":5126,"count":596,"max":[50,50,28],"min":[-50,-50,0],"type":"VEC3"},{"bufferView":22,"byteOffset":0,"componentType":5126,"count":596,"type":"VEC3"},{"bufferView":23,"byteOffset":0,"componentType":5126,"count":596,"type":"VEC2"},{"bufferView":24,"byteOffset":0,"componentType":5125,"count":6912,"type":"SCALAR"},{"bufferView":25,"byteOffset":0,"componentType":5126,"count":1302,"max":[50,50,100],"min":[-50,-50,0],"type":"VEC3"},{"bufferView":26,"byteOffset":0,"componentType":5126,"count":1302,"type":"VEC3"},{"bufferView":27,"byteOffset":0,"componentType":5126,"count":1302,"type":"VEC2"},{"bufferView":28,"byteOffset":0,"componentType":5125,"count":2700,"type":"SCALAR"},{"bufferView":29,"byteOffset":0,"componentType":5126,"count":556,"max":[50,50,38],"min":[-50,-50,0],"type":"VEC3"},{"bufferView":30,"byteOffset":0,"componentType":5126,"count":556,"type":"VEC3"},{"bufferView":31,"byteOffset":0,"componentType":5126,"count":556,"type":"VEC2"},{"bufferView":32,"byteOffset":0,"componentType":5125,"count":2700,"type":"SCALAR"},{"bufferView":33,"byteOffset":0,"componentType":5126,"count":556,"max":[50,61,57],"min":[-50,-61,0],"type":"VEC3"},{"bufferView":34,"byteOffset":0,"componentType":5126,"count":556,"type":"VEC3"},{"bufferView":35,"byteOffset":0,"componentType":5126,"count":556,"type":"VEC2"},{"bufferView":36,"byteOffset":0,"componentType":5125,"count":2700,"type":"SCALAR"},{"bufferView":37,"byteOffset":0,"componentType":5126,"count":556,"max":[50,50,38],"min":[-50,-50,0],"type":"VEC3"},{"bufferView":38,"byteOffset":0,"componentType":5126,"count":556,"type":"VEC3"},{"bufferView":39,"byteOffset":0,"componentType":5126,"count":556,"type":"VEC2"},{"bufferView":40,"byteOffset":0,"componentType":5125,"count":2700,"type":"SCALAR"},{"bufferView":41,"byteOffset":0,"componentType":5126,"count":556,"max":[50,61,57],"min":[-50,-61,0],"type":"VEC3"},{"bufferView":42,"byteOffset":0,"componentType":5126,"count":556,"type":"VEC3"},{"bufferView":43,"byteOffset":0,"componentType":5126,"count":556,"type":"VEC2"},{"bufferView":44,"byteOffset":0,"componentType":5125,"count":4992,"type":"SCALAR"},{"bufferView":45,"byteOffset":0,"componentType":5126,"count":897,"max":[55.3360710144043,55.3360710144043,65.5909652709961],"min":[-55.3360710144043,-55.3360710144043,0],"type":"VEC3"},{"bufferView":46,"byteOffset":0,"componentType":5126,"count":897,"type":"VEC3"},{"bufferView":47,"byteOffset":0,"componentType":5126,"count":897,"type":"VEC2"}],"bufferViews":[{"buffer":0,"byteOffset":0,"byteLength":432,"target":34963},{"buffer":0,"byteOffset":432,"byteLength":840,"target":34962},{"buffer":0,"byteOffset":1272,"byteLength":840,"target":34962},{"buffer":0,"byteOffset":2112,"byteLength":560,"target":34962},{"buffer":0,"byteOffset":2672,"byteLength":3792,"target":34963},{"buffer":0,"byteOffset":6464,"byteLength":7560,"target":34962},{"buffer":0,"byteOffset":14024,"byteLength":7560,"target":34962},{"buffer":0,"byteOffset":21584,"byteLength":5040,"target":34962},{"buffer":0,"byteOffset":26624,"byteLength":2208,"target":34963},{"buffer":0,"byteOffset":28832,"byteLength":4392,"target":34962},{"buffer":0,"byteOffset":33224,"byteLength":4392,"target":34962},{"buffer":0,"byteOffset":37616,"byteLength":2928,"target":34962},{"buffer":0,"byteOffset":40544,"byteLength":4752,"target":34963},{"buffer":0,"byteOffset":45296,"byteLength":9528,"target":34962},{"buffer":0,"byteOffset":54824,"byteLength":9528,"target":34962},{"buffer":0,"byteOffset":64352,"byteLength":6352,"target":34962},{"buffer":0,"byteOffset":70704,"byteLength":960,"target":34963},{"buffer":0,"byteOffset":71664,"byteLength":684,"target":34962},{"buffer":0,"byteOffset":72348,"byteLength":684,"target":34962},{"buffer":0,"byteOffset":73032,"byteLength":456,"target":34962},{"buffer":0,"byteOffset":73488,"byteLength":11664,"target":34963},{"buffer":0,"byteOffset":85152,"byteLength":7152,"target":34962},{"buffer":0,"byteOffset":92304,"byteLength":7152,"target":34962},{"buffer":0,"byteOffset":99456,"byteLength":4768,"target":34962},{"buffer":0,"byteOffset":104224,"byteLength":27648,"target":34963},{"buffer":0,"byteOffset":131872,"byteLength":15624,"target":34962},{"buffer":0,"byteOffset":147496,"byteLength":15624,"target":34962},{"buffer":0,"byteOffset":163120,"byteLength":10416,"target":34962},{"buffer":0,"byteOffset":173536,"byteLength":10800,"target":34963},{"buffer":0,"byteOffset":184336,"byteLength":6672,"target":34962},{"buffer":0,"byteOffset":191008,"byteLength":6672,"target":34962},{"buffer":0,"byteOffset":197680,"byteLength":4448,"target":34962},{"buffer":0,"byteOffset":202128,"byteLength":10800,"target":34963},{"buffer":0,"byteOffset":212928,"byteLength":6672,"target":34962},{"buffer":0,"byteOffset":219600,"byteLength":6672,"target":34962},{"buffer":0,"byteOffset":226272,"byteLength":4448,"target":34962},{"buffer":0,"byteOffset":230720,"byteLength":10800,"target":34963},{"buffer":0,"byteOffset":241520,"byteLength":6672,"target":34962},{"buffer":0,"byteOffset":248192,"byteLength":6672,"target":34962},{"buffer":0,"byteOffset":254864,"byteLength":4448,"target":34962},{"buffer":0,"byteOffset":259312,"byteLength":10800,"target":34963},{"buffer":0,"byteOffset":270112,"byteLength":6672,"target":34962},{"buffer":0,"byteOffset":276784,"byteLength":6672,"target":34962},{"buffer":0,"byteOffset":283456,"byteLength":4448,"target":34962},{"buffer":0,"byteOffset":287904,"byteLength":19968,"target":34963},{"buffer":0,"byteOffset":307872,"byteLength":10764,"target":34962},{"buffer":0,"byteOffset":318636,"byteLength":10764,"target":34962},{"buffer":0,"byteOffset":329400,"byteLength":7176,"target":34962}],"textures":[{"sampler":0,"source":0}],"images":[{"uri":"metallicTexture&Image_Texture.jpg","mimeType":"image/jpeg"}],"samplers":[{"wrapS":10497,"wrapT":10497}],"scene":0,"scenes":[{"nodes":[0,1,2,3,4,5,6,7,10,13],"name":"Demo - Arm chair"}],"extensionsUsed":["KHR_texture_transform"],"buffers":[{"byteLength":336576,"uri":"Demo- Arm chair.bin"}]}